<svg xmlns="http://www.w3.org/2000/svg" xmlns:xlink="http://www.w3.org/1999/xlink" width="20" height="20" viewBox="0 0 20 20">
  <defs>
    <clipPath id="clip-path">
      <rect id="Rectangle_32" data-name="Rectangle 32" width="20" height="20" fill="#93cd94"/>
    </clipPath>
  </defs>
  <g id="Mask_Group_16" data-name="Mask Group 16" clip-path="url(#clip-path)">
    <path id="email" d="M18.125,3.75H1.875A1.877,1.877,0,0,0,0,5.625v11.25A1.877,1.877,0,0,0,1.875,18.75h16.25A1.877,1.877,0,0,0,20,16.875V5.625A1.877,1.877,0,0,0,18.125,3.75Zm0,1.25a.621.621,0,0,1,.24.048L10,12.3,1.635,5.048A.622.622,0,0,1,1.875,5Zm0,12.5H1.875a.625.625,0,0,1-.625-.625V6.369L9.59,13.6a.626.626,0,0,0,.819,0l8.34-7.228V16.875A.625.625,0,0,1,18.125,17.5Z" transform="translate(0 -1.25)" fill="#93cd94"/>
  </g>
</svg>
