<svg xmlns="http://www.w3.org/2000/svg" xmlns:xlink="http://www.w3.org/1999/xlink" width="20" height="20" viewBox="0 0 20 20">
  <defs>
    <clipPath id="clip-path">
      <rect id="Rectangle_31" data-name="Rectangle 31" width="20" height="20" transform="translate(0 -0.006)" fill="#93cd94" stroke="#707070" stroke-width="1"/>
    </clipPath>
  </defs>
  <g id="Mask_Group_13" data-name="Mask Group 13" transform="translate(0 0.006)" clip-path="url(#clip-path)">
    <path id="instagram" d="M17.9,13.976a4.114,4.114,0,0,1-4.09,4.137H5.955a4.114,4.114,0,0,1-4.09-4.137V6.024a4.114,4.114,0,0,1,4.09-4.137h7.859A4.114,4.114,0,0,1,17.9,6.024Zm1.865-7.952A5.99,5.99,0,0,0,13.814,0H5.955A5.989,5.989,0,0,0,0,6.024v7.952A5.99,5.99,0,0,0,5.955,20h7.858a5.991,5.991,0,0,0,5.955-6.025ZM9.918,13.292a3.164,3.164,0,1,1,3.127-3.164,3.149,3.149,0,0,1-3.127,3.164Zm0-8.1A4.939,4.939,0,1,0,14.8,10.129,4.916,4.916,0,0,0,9.918,5.19Zm5.167-1.508a1.176,1.176,0,1,0,1.162,1.176,1.169,1.169,0,0,0-1.162-1.176Z" fill="#93cd94"/>
  </g>
</svg>
