<svg xmlns="http://www.w3.org/2000/svg" xmlns:xlink="http://www.w3.org/1999/xlink" width="20" height="20" viewBox="0 0 20 20">
  <defs>
    <clipPath id="clip-path">
      <rect id="Rectangle_31" data-name="Rectangle 31" width="20" height="20" fill="#357d54" stroke="#707070" stroke-width="1"/>
    </clipPath>
  </defs>
  <g id="Mask_Group_13" data-name="Mask Group 13" clip-path="url(#clip-path)">
    <path id="instagram" d="M18.113,13.976a4.138,4.138,0,0,1-4.138,4.137H6.024a4.137,4.137,0,0,1-4.137-4.137V6.024A4.138,4.138,0,0,1,6.024,1.886h7.951a4.137,4.137,0,0,1,4.137,4.137v7.952ZM20,6.024A6.024,6.024,0,0,0,13.975,0H6.025A6.024,6.024,0,0,0,0,6.024v7.952A6.025,6.025,0,0,0,6.025,20h7.95A6.025,6.025,0,0,0,20,13.975Zm-9.966,7.269A3.164,3.164,0,1,1,13.2,10.129a3.168,3.168,0,0,1-3.164,3.164Zm0-8.1a4.939,4.939,0,1,0,4.939,4.939A4.944,4.944,0,0,0,10.034,5.19Zm5.228-1.508a1.176,1.176,0,1,0,1.176,1.176,1.176,1.176,0,0,0-1.176-1.176Z" fill="#357d54"/>
  </g>
</svg>
