<svg xmlns="http://www.w3.org/2000/svg" xmlns:xlink="http://www.w3.org/1999/xlink" width="20" height="20" viewBox="0 0 20 20">
  <defs>
    <clipPath id="clip-path">
      <rect id="Rectangle_31" data-name="Rectangle 31" width="20" height="20" fill="#93cd94" stroke="#707070" stroke-width="1"/>
    </clipPath>
  </defs>
  <g id="Mask_Group_14" data-name="Mask Group 14" clip-path="url(#clip-path)">
    <path id="twitter" d="M19.925,4.787a8.232,8.232,0,0,1-2.02.577c.325-.055.8-.644,1-.882a3.717,3.717,0,0,0,.672-1.225c.017-.035.031-.079,0-.106a.117.117,0,0,0-.108.009,10.323,10.323,0,0,1-2.4.919.161.161,0,0,1-.166-.044,1.939,1.939,0,0,0-.209-.215,4.247,4.247,0,0,0-1.162-.712,4.048,4.048,0,0,0-1.783-.287,4.266,4.266,0,0,0-1.692.478,4.364,4.364,0,0,0-1.364,1.114,4.189,4.189,0,0,0-.815,1.632,4.442,4.442,0,0,0-.044,1.723c.014.1.005.109-.082.1A12.814,12.814,0,0,1,1.5,3.669c-.1-.11-.149-.11-.227.008a4.181,4.181,0,0,0,.712,4.941c.162.153.327.306.507.446A4.2,4.2,0,0,1,.9,8.617C.8,8.557.756,8.592.748,8.7a2.494,2.494,0,0,0,.026.472A4.229,4.229,0,0,0,3.38,12.544a2.463,2.463,0,0,0,.529.161,4.713,4.713,0,0,1-1.561.049c-.114-.022-.157.034-.114.144a4.387,4.387,0,0,0,3.279,2.746c.149.026.3.026.446.061-.009.013-.017.013-.026.026a5.205,5.205,0,0,1-2.239,1.187,8.028,8.028,0,0,1-3.4.435c-.182-.027-.221-.025-.271,0s-.006.075.052.122c.231.153.467.289.708.42a11.219,11.219,0,0,0,2.274.909,12.11,12.11,0,0,0,11.756-2.749c2.408-2.394,3.252-5.694,3.252-9,0-.129.152-.2.244-.269A7.9,7.9,0,0,0,19.9,5.124.484.484,0,0,0,20,4.8V4.787C20,4.735,20.006,4.75,19.925,4.787Z" transform="translate(0 -1.049)" fill="#93cd94" fill-rule="evenodd"/>
  </g>
</svg>
