<svg xmlns="http://www.w3.org/2000/svg" xmlns:xlink="http://www.w3.org/1999/xlink" width="20" height="20" viewBox="0 0 20 20">
  <defs>
    <clipPath id="clip-path">
      <rect id="Rectangle_31" data-name="Rectangle 31" width="20" height="20" fill="#357d54" stroke="#707070" stroke-width="1"/>
    </clipPath>
  </defs>
  <g id="Mask_Group_15" data-name="Mask Group 15" clip-path="url(#clip-path)">
    <g id="whatsapp" transform="translate(0 0)">
      <path id="Path_14" data-name="Path 14" d="M17.079,14.569l-.008.062c-1.832-.913-2.024-1.035-2.261-.68-.164.246-.642.8-.787.968s-.291.175-.538.062a6.763,6.763,0,0,1-2-1.237A7.56,7.56,0,0,1,10.1,12.02c-.244-.422.267-.482.732-1.362a.458.458,0,0,0-.021-.437c-.062-.125-.56-1.35-.768-1.838s-.406-.425-.56-.425a1.24,1.24,0,0,0-1.14.287c-1.345,1.478-1.006,3,.145,4.625,2.262,2.96,3.467,3.5,5.67,4.262a3.448,3.448,0,0,0,1.567.1,2.564,2.564,0,0,0,1.68-1.188,2.063,2.063,0,0,0,.15-1.187c-.062-.112-.225-.175-.475-.287Z" transform="translate(-2.49 -2.646)" fill="#357d54"/>
      <path id="Path_15" data-name="Path 15" d="M17.1,2.874C10.692-3.32.088,1.172.084,9.91a9.863,9.863,0,0,0,1.329,4.954L0,20l5.279-1.377A9.975,9.975,0,0,0,20,9.915a9.828,9.828,0,0,0-2.912-7.009Zm1.235,7.014a8.3,8.3,0,0,1-12.51,7.087l-.3-.178L2.4,17.609l.837-3.037-.2-.312a8.265,8.265,0,0,1,12.872-10.2,8.157,8.157,0,0,1,2.424,5.825Z" transform="translate(0 0.001)" fill="#357d54"/>
    </g>
  </g>
</svg>
